HIERARCHY
ROOT joint_0
{
	OFFSET 0.000000 0.000000 0.000000
	CHANNELS 6 Xposition Yposition Zposition Zrotation Yrotation Xrotation 
	JOINT joint_1
	{
		OFFSET 7.745728 2.152245 124.869995
		CHANNELS 3 Zrotation Yrotation Xrotation
		JOINT joint_2
		{
			OFFSET -6.359406 2.617477 113.975952
			CHANNELS 3 Zrotation Yrotation Xrotation
			JOINT joint_3
			{
				OFFSET -8.187927 3.340103 113.713013
				CHANNELS 3 Zrotation Yrotation Xrotation
				JOINT joint_4
				{
					OFFSET 2.859222 5.755905 159.680054
					CHANNELS 3 Zrotation Yrotation Xrotation
					JOINT joint_5
					{
						OFFSET 22.724274 2.598469 88.906982
						CHANNELS 3 Zrotation Yrotation Xrotation
						End Site
						{
							OFFSET 0.000000 0.000000 0.000000
						}
					}
				}
				JOINT joint_6
				{
					OFFSET 2.312134 -31.513222 90.723022
					CHANNELS 3 Zrotation Yrotation Xrotation
					JOINT joint_7
					{
						OFFSET -0.486389 -150.827950 -17.660034
						CHANNELS 3 Zrotation Yrotation Xrotation
						JOINT joint_8
						{
							OFFSET 15.633850 -16.961029 -297.395020
							CHANNELS 3 Zrotation Yrotation Xrotation
							JOINT joint_9
							{
								OFFSET 5.600098 1.609863 -262.782959
								CHANNELS 3 Zrotation Yrotation Xrotation
								End Site
								{
									OFFSET 0.000000 0.000000 0.000000
								}
							}
						}
					}
				}
				JOINT joint_10
				{
					OFFSET 1.012756 37.963039 88.243042
					CHANNELS 3 Zrotation Yrotation Xrotation
					JOINT joint_11
					{
						OFFSET -2.397430 150.471996 -20.492065
						CHANNELS 3 Zrotation Yrotation Xrotation
						JOINT joint_12
						{
							OFFSET -10.575745 12.779427 -297.765015
							CHANNELS 3 Zrotation Yrotation Xrotation
							JOINT joint_13
							{
								OFFSET 196.311081 2.689713 -176.286011
								CHANNELS 3 Zrotation Yrotation Xrotation
								End Site
								{
									OFFSET 0.000000 0.000000 0.000000
								}
							}
						}
					}
				}
			}
		}
	}
	JOINT joint_14
	{
		OFFSET 1.244965 -96.891136 -118.152039
		CHANNELS 3 Zrotation Yrotation Xrotation
		JOINT joint_15
		{
			OFFSET -2.982971 -16.401871 -443.439026
			CHANNELS 3 Zrotation Yrotation Xrotation
			JOINT joint_16
			{
				OFFSET -42.052063 -15.386002 -460.966980
				CHANNELS 3 Zrotation Yrotation Xrotation
				JOINT joint_17
				{
					OFFSET 177.916595 102.818184 -88.655001
					CHANNELS 3 Zrotation Yrotation Xrotation
					End Site
					{
						OFFSET 0.000000 0.000000 0.000000
					}
				}
			}
		}
	}
	JOINT joint_18
	{
		OFFSET 1.788635 96.476997 -118.463074
		CHANNELS 3 Zrotation Yrotation Xrotation
		JOINT joint_19
		{
			OFFSET -9.555542 8.093691 -443.574951
			CHANNELS 3 Zrotation Yrotation Xrotation
			JOINT joint_20
			{
				OFFSET -48.427551 9.415819 -460.500023
				CHANNELS 3 Zrotation Yrotation Xrotation
				JOINT joint_21
				{
					OFFSET 204.978119 20.223980 -87.523996
					CHANNELS 3 Zrotation Yrotation Xrotation
					End Site
					{
						OFFSET 0.000000 0.000000 0.000000
					}
				}
			}
		}
	}
}
MOTION
Frames: 15
Frame Time: 0.016667
355.129395 -9.810934 1140.873047 -0.752106 0.276715 0.674456 0.327465 -0.325760 -0.787158 0.375603 0.052181 0.198928 0.353739 -0.063268 -0.151825 -0.204840 1.172162 0.642624 0.000000 0.000000 0.000000 2.723191 -0.434366 2.913228 -0.184382 -0.071407 -3.829830 0.023045 0.788596 1.021087 0.000000 0.000000 0.000000 -1.840978 -2.407718 -1.511058 -1.027140 -2.226179 1.666162 1.149910 49.609324 -1.066408 0.000000 0.000000 0.000000 -8.342676 -1.211313 -1.585046 -8.504042 3.265052 -2.938932 -8.441489 -1.444478 -3.358722 0.000000 0.000000 0.000000 -3.623344 -0.076666 -0.694572 -3.585459 1.616057 -1.005546 -3.519947 1.933973 -1.691148 0.000000 0.000000 0.000000 
355.313202 -9.916623 1140.848999 -0.747771 0.276099 0.674411 0.324002 -0.335028 -0.795685 0.372554 0.052902 0.200764 0.350530 -0.064635 -0.153087 -0.204833 1.183012 0.641113 0.000000 0.000000 0.000000 2.714206 -0.426004 2.930111 -0.184723 -0.063968 -3.841761 0.022819 0.792918 1.008731 0.000000 0.000000 0.000000 -1.848877 -2.412326 -1.517538 -1.016622 -2.229009 1.658973 1.159336 49.617587 -1.052114 0.000000 0.000000 0.000000 -8.345076 -1.208964 -1.576161 -8.506926 3.285481 -2.949928 -8.445876 -1.464116 -3.349576 0.000000 0.000000 0.000000 -3.625273 -0.068274 -0.687994 -3.587256 1.623337 -1.007067 -3.522470 1.918822 -1.690724 0.000000 0.000000 0.000000 
355.505127 -10.032535 1140.828979 -0.740832 0.281313 0.674608 0.319779 -0.354113 -0.805962 0.368602 0.055806 0.201852 0.346678 -0.068845 -0.153559 -0.205943 1.196986 0.643547 0.000000 0.000000 0.000000 2.707192 -0.414326 2.946341 -0.184484 -0.053066 -3.846883 0.022469 0.800361 0.989819 0.000000 0.000000 0.000000 -1.854715 -2.414887 -1.520506 -1.004502 -2.229980 1.647530 1.170107 49.631856 -1.033967 0.000000 0.000000 0.000000 -8.348241 -1.212388 -1.564702 -8.510738 3.305900 -2.963119 -8.451458 -1.483513 -3.341160 0.000000 0.000000 0.000000 -3.627975 -0.067548 -0.678737 -3.589471 1.632661 -1.012193 -3.525818 1.904538 -1.690735 0.000000 0.000000 0.000000 
355.697937 -10.147348 1140.810059 -0.733704 0.285650 0.673771 0.315565 -0.370772 -0.813142 0.364467 0.058271 0.201736 0.342752 -0.072376 -0.153272 -0.206763 1.207161 0.645365 0.000000 0.000000 0.000000 2.702347 -0.402014 2.961308 -0.184612 -0.041236 -3.851823 0.022196 0.804790 0.975248 0.000000 0.000000 0.000000 -1.858651 -2.417515 -1.524815 -0.995108 -2.231435 1.637183 1.178277 49.643052 -1.019624 0.000000 0.000000 0.000000 -8.351351 -1.213761 -1.552966 -8.514360 3.324669 -2.975150 -8.456697 -1.501858 -3.333186 0.000000 0.000000 0.000000 -3.630856 -0.065732 -0.669283 -3.591913 1.642329 -1.015766 -3.529252 1.889216 -1.690681 0.000000 0.000000 0.000000 
355.888824 -10.253313 1140.787964 -0.728305 0.284424 0.672040 0.311884 -0.377090 -0.816764 0.360944 0.059334 0.203143 0.339147 -0.073802 -0.154032 -0.206741 1.207990 0.645160 0.000000 0.000000 0.000000 2.698078 -0.390422 2.973086 -0.185724 -0.029939 -3.859183 0.022152 0.801321 0.973140 0.000000 0.000000 0.000000 -1.861308 -2.420882 -1.531223 -0.992873 -2.234291 1.629986 1.179635 49.643331 -1.017306 0.000000 0.000000 0.000000 -8.353745 -1.207761 -1.544073 -8.516962 3.340936 -2.982954 -8.460361 -1.518289 -3.325551 0.000000 0.000000 0.000000 -3.633184 -0.056017 -0.662685 -3.594208 1.649828 -1.013994 -3.531941 1.872442 -1.690170 0.000000 0.000000 0.000000 
356.079193 -10.354304 1140.766968 -0.723875 0.280303 0.669199 0.308023 -0.377663 -0.816009 0.357041 0.059554 0.203368 0.335223 -0.073948 -0.154253 -0.205611 1.203227 0.641394 0.000000 0.000000 0.000000 2.697193 -0.378600 2.982706 -0.187571 -0.017930 -3.867863 0.022264 0.792185 0.979633 0.000000 0.000000 0.000000 -1.859810 -2.424311 -1.540445 -0.995517 -2.238057 1.625500 1.176354 49.636069 -1.022169 0.000000 0.000000 0.000000 -8.355550 -1.197536 -1.536051 -8.518773 3.355351 -2.988446 -8.462933 -1.532917 -3.318421 0.000000 0.000000 0.000000 -3.635074 -0.042060 -0.657225 -3.596280 1.656313 -1.008884 -3.534045 1.854863 -1.689334 0.000000 0.000000 0.000000 
356.266693 -10.456596 1140.744995 -0.720503 0.276994 0.665492 0.305369 -0.376821 -0.812874 0.354196 0.059181 0.202658 0.332436 -0.073061 -0.153646 -0.204317 1.194796 0.637476 0.000000 0.000000 0.000000 2.695620 -0.367796 2.993133 -0.189320 -0.007021 -3.876611 0.022366 0.783552 0.985709 0.000000 0.000000 0.000000 -1.860689 -2.429310 -1.550722 -0.997511 -2.243009 1.622071 1.173758 49.629991 -1.026250 0.000000 0.000000 0.000000 -8.357058 -1.188103 -1.526983 -8.520288 3.369311 -2.993716 -8.465192 -1.547426 -3.311210 0.000000 0.000000 0.000000 -3.636698 -0.030660 -0.650700 -3.597942 1.665933 -1.003913 -3.535895 1.835880 -1.688251 0.000000 0.000000 0.000000 
356.447052 -10.567669 1140.723999 -0.717563 0.278206 0.660689 0.304583 -0.378450 -0.808874 0.353152 0.059271 0.202465 0.331403 -0.072938 -0.153664 -0.203221 1.186989 0.634242 0.000000 0.000000 0.000000 2.690123 -0.358380 3.009116 -0.190500 0.001996 -3.885837 0.022342 0.779416 0.984978 0.000000 0.000000 0.000000 -1.867616 -2.436711 -1.560598 -0.993883 -2.249161 1.618700 1.176631 49.631895 -1.021596 0.000000 0.000000 0.000000 -8.358748 -1.183646 -1.514910 -8.522115 3.382791 -2.999401 -8.467810 -1.561610 -3.304379 0.000000 0.000000 0.000000 -3.638354 -0.029324 -0.640707 -3.599100 1.684162 -1.002032 -3.537876 1.815324 -1.687065 0.000000 0.000000 0.000000 
356.621826 -10.683337 1140.703003 -0.715622 0.281971 0.654696 0.305264 -0.380372 -0.802574 0.353385 0.059732 0.201367 0.331780 -0.073137 -0.153052 -0.201723 1.177009 0.629725 0.000000 0.000000 0.000000 2.683499 -0.349921 3.028373 -0.191419 0.009912 -3.895706 0.022249 0.777269 0.980682 0.000000 0.000000 0.000000 -1.877602 -2.446152 -1.571098 -0.987085 -2.256696 1.615943 1.182586 49.638235 -1.011774 0.000000 0.000000 0.000000 -8.360127 -1.181733 -1.500630 -8.523667 3.395432 -3.005153 -8.470179 -1.575777 -3.297441 0.000000 0.000000 0.000000 -3.640003 -0.034562 -0.628380 -3.599891 1.709105 -1.001508 -3.539887 1.793033 -1.685719 0.000000 0.000000 0.000000 
356.793274 -10.805384 1140.680054 -0.715662 0.285850 0.649408 0.306753 -0.380514 -0.797557 0.354568 0.059360 0.200706 0.333049 -0.072880 -0.152243 -0.200604 1.167407 0.626637 0.000000 0.000000 0.000000 2.677750 -0.342793 3.048721 -0.192126 0.016581 -3.903963 0.022120 0.775161 0.974667 0.000000 0.000000 0.000000 -1.888289 -2.456821 -1.581290 -0.979731 -2.265322 1.613176 1.189067 49.646349 -1.001241 0.000000 0.000000 0.000000 -8.360761 -1.182230 -1.485898 -8.524676 3.411431 -3.012924 -8.472305 -1.591288 -3.289601 0.000000 0.000000 0.000000 -3.640876 -0.039461 -0.615825 -3.599900 1.733162 -1.002215 -3.541257 1.770942 -1.684120 0.000000 0.000000 0.000000 
356.962738 -10.937685 1140.651978 -0.718992 0.287664 0.645886 0.308955 -0.378260 -0.795097 0.356612 0.059920 0.199922 0.335190 -0.072206 -0.151637 -0.200195 1.159770 0.626072 0.000000 0.000000 0.000000 2.674968 -0.338026 3.069595 -0.192358 0.021173 -3.908566 0.021971 0.775228 0.967479 0.000000 0.000000 0.000000 -1.899585 -2.467915 -1.588698 -0.974468 -2.274517 1.609311 1.193437 49.651985 -0.995313 0.000000 0.000000 0.000000 -8.360212 -1.185763 -1.471498 -8.524930 3.436042 -3.024313 -8.474207 -1.610416 -3.279552 0.000000 0.000000 0.000000 -3.641032 -0.039135 -0.603501 -3.599375 1.751863 -1.004816 -3.542159 1.749839 -1.682418 0.000000 0.000000 0.000000 
357.128265 -11.080445 1140.620972 -0.725009 0.288093 0.643728 0.312999 -0.372021 -0.794768 0.360692 0.059015 0.198788 0.339324 -0.070750 -0.151049 -0.200788 1.154326 0.629123 0.000000 0.000000 0.000000 2.670778 -0.335037 3.092729 -0.192257 0.023792 -3.911437 0.021795 0.776742 0.958842 0.000000 0.000000 0.000000 -1.914829 -2.480558 -1.594176 -0.969370 -2.284779 1.604918 1.197599 49.658312 -0.990288 0.000000 0.000000 0.000000 -8.358707 -1.192098 -1.457060 -8.524577 3.467538 -3.038777 -8.475952 -1.632034 -3.267983 0.000000 0.000000 0.000000 -3.640130 -0.036100 -0.590805 -3.597831 1.768353 -1.009961 -3.542295 1.729253 -1.680438 0.000000 0.000000 0.000000 
357.293182 -11.217240 1140.589966 -0.731268 0.290175 0.642173 0.314420 -0.368190 -0.794160 0.362111 0.058824 0.198215 0.340777 -0.069875 -0.150712 -0.201087 1.150068 0.630882 0.000000 0.000000 0.000000 2.673230 -0.333229 3.114814 -0.192340 0.026021 -3.913517 0.021645 0.774933 0.951818 0.000000 0.000000 0.000000 -1.922147 -2.491955 -1.601201 -0.964553 -2.294862 1.601136 1.201527 49.663090 -0.985847 0.000000 0.000000 0.000000 -8.357220 -1.198711 -1.443726 -8.524158 3.495951 -3.052108 -8.477513 -1.653339 -3.256495 0.000000 0.000000 0.000000 -3.639481 -0.032562 -0.580399 -3.596754 1.780358 -1.012091 -3.542370 1.710613 -1.678628 0.000000 0.000000 0.000000 
357.462708 -11.330436 1140.562012 -0.736077 0.296102 0.640892 0.310887 -0.370644 -0.790499 0.358294 0.058707 0.197336 0.337058 -0.069406 -0.149999 -0.200893 1.150352 0.630121 0.000000 0.000000 0.000000 2.682913 -0.332567 3.134277 -0.192959 0.027996 -3.917169 0.021585 0.767841 0.949642 0.000000 0.000000 0.000000 -1.915336 -2.500545 -1.614037 -0.959695 -2.303931 1.599783 1.205640 49.665040 -0.980850 0.000000 0.000000 0.000000 -8.356271 -1.202906 -1.433553 -8.523819 3.512757 -3.060152 -8.478465 -1.671520 -3.246497 0.000000 0.000000 0.000000 -3.639371 -0.028526 -0.575489 -3.596689 1.783662 -1.006205 -3.542186 1.695685 -1.677085 0.000000 0.000000 0.000000 
357.634552 -11.427306 1140.536011 -0.740902 0.304948 0.640011 0.303104 -0.377482 -0.784121 0.349904 0.058837 0.194626 0.329041 -0.069803 -0.147756 -0.200163 1.153563 0.626892 0.000000 0.000000 0.000000 2.702130 -0.333098 3.152005 -0.194000 0.029924 -3.921955 0.021588 0.756487 0.950958 0.000000 0.000000 0.000000 -1.895221 -2.506832 -1.631876 -0.954302 -2.312369 1.600456 1.210386 49.664983 -0.974498 0.000000 0.000000 0.000000 -8.355446 -1.206211 -1.425512 -8.523334 3.522085 -3.064856 -8.478839 -1.687398 -3.237538 0.000000 0.000000 0.000000 -3.639600 -0.023401 -0.574885 -3.597367 1.779234 -0.994041 -3.541722 1.683894 -1.675739 0.000000 0.000000 0.000000 
